<?xml version="1.0" encoding="UTF-8" standalone="no"?>
<!-- Created with Inkscape (http://www.inkscape.org/) -->

<svg
   xmlns:dc="http://purl.org/dc/elements/1.1/"
   xmlns:cc="http://creativecommons.org/ns#"
   xmlns:rdf="http://www.w3.org/1999/02/22-rdf-syntax-ns#"
   xmlns:svg="http://www.w3.org/2000/svg"
   xmlns="http://www.w3.org/2000/svg"
   xmlns:sodipodi="http://sodipodi.sourceforge.net/DTD/sodipodi-0.dtd"
   xmlns:inkscape="http://www.inkscape.org/namespaces/inkscape"
   width="170"
   height="250"
   id="svg2"
   version="1.1"
   inkscape:version="0.48.2 r9819"
   sodipodi:docname="logo-ideas.svg">
  <defs
     id="defs4" />
  <sodipodi:namedview
     id="base"
     pagecolor="#ffffff"
     bordercolor="#666666"
     borderopacity="1.0"
     inkscape:pageopacity="0.0"
     inkscape:pageshadow="2"
     inkscape:zoom="1.8807278"
     inkscape:cx="182.53906"
     inkscape:cy="91.938817"
     inkscape:document-units="px"
     inkscape:current-layer="layer1"
     showgrid="false"
     showguides="true"
     inkscape:guide-bbox="true"
     inkscape:window-width="1276"
     inkscape:window-height="756"
     inkscape:window-x="1"
     inkscape:window-y="0"
     inkscape:window-maximized="0" />
  <metadata
     id="metadata7">
    <rdf:RDF>
      <cc:Work
         rdf:about="">
        <dc:format>image/svg+xml</dc:format>
        <dc:type
           rdf:resource="http://purl.org/dc/dcmitype/StillImage" />
        <dc:title></dc:title>
      </cc:Work>
    </rdf:RDF>
  </metadata>
  <g
     inkscape:label="Layer 1"
     inkscape:groupmode="layer"
     id="layer1"
     transform="translate(0,-802.36218)">
    <g
       id="g3436">
      <flowRoot
         style="font-size:9px;font-style:normal;font-weight:normal;line-height:125%;letter-spacing:0px;word-spacing:0px;fill:#000000;fill-opacity:1;stroke:none;font-family:Sans"
         id="flowRoot4004"
         xml:space="preserve"><flowRegion
           id="flowRegion4006"><rect
             y="-19.563293"
             x="53.170906"
             height="1016.6277"
             width="718.87067"
             id="rect4008" /></flowRegion><flowPara
           id="flowPara4010" /></flowRoot>      <rect
         style="fill:#5fbcd3;fill-opacity:1;fill-rule:evenodd;stroke:none"
         id="rect4241"
         width="99.777084"
         height="196.41074"
         x="5.9591441"
         y="801.95209"
         rx="49.888542"
         ry="47.871635"
         transform="matrix(0.99997071,0.00765381,-0.00626838,0.99998035,0,0)" />
      <rect
         transform="matrix(0.99999884,0.00152553,-1.4006104e-4,0.99999999,0,0)"
         ry="47.871635"
         rx="49.888542"
         y="855.76874"
         x="70.041687"
         height="196.41074"
         width="99.777084"
         id="rect4287"
         style="fill:#ff2a2a;fill-opacity:1;fill-rule:evenodd;stroke:none" />
      <rect
         style="fill:#ff2a2a;fill-opacity:1;fill-rule:evenodd;stroke:none"
         id="rect4323"
         width="99.775047"
         height="107.93344"
         x="81.293083"
         y="943.94501"
         rx="49.887524"
         ry="53.966721"
         transform="matrix(0.99999116,0.00420589,-0.01140679,0.99993494,0,0)" />
      <g
         id="g4291"
         transform="matrix(0.24959173,-0.18771827,0.18500782,0.25324836,127.40187,797.51207)">
        <path
           transform="matrix(1.2826087,0,0,1.2826087,556.34115,-117.09129)"
           sodipodi:open="true"
           sodipodi:end="6.2789093"
           sodipodi:start="0"
           d="m -545.9158,303.4198 c 0,38.20673 -30.97268,69.17941 -69.17941,69.17941 -38.20674,0 -69.17942,-30.97268 -69.17942,-69.17941 0,-38.20673 30.97268,-69.17941 69.17942,-69.17941 38.09126,0 69.0159,30.79268 69.17878,68.8836"
           sodipodi:ry="69.179413"
           sodipodi:rx="69.179413"
           sodipodi:cy="303.4198"
           sodipodi:cx="-615.09521"
           id="path4293"
           style="fill:#000000;fill-opacity:1;fill-rule:evenodd;stroke:none"
           sodipodi:type="arc" />
        <g
           transform="matrix(-0.51156537,-0.85924436,0.85924436,-0.51156537,-942.7505,45.245576)"
           id="g4295">
          <g
             id="g4297">
            <path
               sodipodi:nodetypes="csccccccccscccsscs"
               inkscape:connector-curvature="0"
               id="path4299"
               d="m -466.76694,548.08406 c 29.16171,-50.50956 11.74399,-115.4694 -38.76557,-144.63111 -50.50956,-29.16171 -118.29755,-15.64872 -210.62307,-7.24837 32.57102,78.95755 54.15696,161.13894 104.37541,190.40586 0.12577,0.0731 0.24205,0.15834 0.36817,0.23116 0.12693,0.0699 0.25505,0.1377 0.38428,0.20327 0.005,0.003 0.009,0.005 0.0139,0.008 0.24358,0.13902 0.49653,0.25341 0.74068,0.39044 50.37378,28.27504 114.57203,10.75607 143.50615,-39.3593 z m -22.16939,-12.7995 c -22.17689,38.41149 -70.86363,51.57706 -109.36961,29.56462 -0.0324,-0.0189 -0.0649,-0.0377 -0.0975,-0.0563 -0.0693,-0.0409 -0.13897,-0.0811 -0.20902,-0.12067 -38.52929,-22.2449 -51.61859,-71.13883 -29.3737,-109.66812 22.2449,-38.52928 71.12489,-51.62664 109.65418,-29.38174 38.52929,22.2449 51.64057,71.13293 29.39568,109.66222 z"
               style="font-size:medium;font-style:normal;font-variant:normal;font-weight:normal;font-stretch:normal;text-indent:0;text-align:start;text-decoration:none;line-height:normal;letter-spacing:normal;word-spacing:normal;text-transform:none;direction:ltr;block-progression:tb;writing-mode:lr-tb;text-anchor:start;baseline-shift:baseline;color:#000000;fill:#000000;fill-opacity:1;fill-rule:evenodd;stroke:none;stroke-width:49.71479797;marker:none;visibility:visible;display:inline;overflow:visible;enable-background:accumulate;font-family:Sans;-inkscape-font-specification:Sans" />
          </g>
          <path
             sodipodi:type="arc"
             style="fill:#000000;fill-opacity:1;fill-rule:evenodd;stroke:#000000;stroke-width:100.53814697;stroke-linecap:round;stroke-miterlimit:4;stroke-opacity:1;stroke-dasharray:none"
             id="path4301"
             sodipodi:cx="387.0842"
             sodipodi:cy="356.88672"
             sodipodi:rx="70.1856"
             sodipodi:ry="70.1856"
             d="m 457.2698,356.88672 c 0,38.76244 -31.42317,70.1856 -70.1856,70.1856 -38.76244,0 -70.1856,-31.42316 -70.1856,-70.1856 0,-38.76244 31.42316,-70.1856 70.1856,-70.1856 38.64528,0 70.01971,31.24055 70.18496,69.88549"
             sodipodi:start="0"
             sodipodi:end="6.2789093"
             sodipodi:open="true"
             transform="matrix(-0.24866185,0.43069494,-0.43069494,-0.24866185,-308.50373,417.17241)" />
        </g>
        <path
           sodipodi:type="arc"
           style="fill:#000000;fill-opacity:1;fill-rule:evenodd;stroke:#000000;stroke-width:100.53814697;stroke-linecap:round;stroke-miterlimit:4;stroke-opacity:1;stroke-dasharray:none"
           id="path4303"
           sodipodi:cx="387.0842"
           sodipodi:cy="356.88672"
           sodipodi:rx="70.1856"
           sodipodi:ry="70.1856"
           d="m 457.2698,356.88672 c 0,38.76244 -31.42317,70.1856 -70.1856,70.1856 -38.76244,0 -70.1856,-31.42316 -70.1856,-70.1856 0,-38.76244 31.42316,-70.1856 70.1856,-70.1856 38.64528,0 70.01971,31.24055 70.18496,69.88549"
           sodipodi:start="0"
           sodipodi:end="6.2789093"
           sodipodi:open="true"
           transform="matrix(0.49727899,-0.00666732,0.00666732,0.49727899,-426.47765,96.914706)" />
      </g>
      <g
         transform="matrix(-0.26974386,0.15640821,-0.15414984,-0.27369573,98.323191,1109.1429)"
         id="g4305">
        <path
           sodipodi:type="arc"
           style="fill:#000000;fill-opacity:1;fill-rule:evenodd;stroke:none"
           id="path4307"
           sodipodi:cx="-615.09521"
           sodipodi:cy="303.4198"
           sodipodi:rx="69.179413"
           sodipodi:ry="69.179413"
           d="m -545.9158,303.4198 c 0,38.20673 -30.97268,69.17941 -69.17941,69.17941 -38.20674,0 -69.17942,-30.97268 -69.17942,-69.17941 0,-38.20673 30.97268,-69.17941 69.17942,-69.17941 38.09126,0 69.0159,30.79268 69.17878,68.8836"
           sodipodi:start="0"
           sodipodi:end="6.2789093"
           sodipodi:open="true"
           transform="matrix(1.2826087,0,0,1.2826087,556.34115,-117.09129)" />
        <g
           id="g4309"
           transform="matrix(-0.51156537,-0.85924436,0.85924436,-0.51156537,-942.7505,45.245576)">
          <g
             id="g4311">
            <path
               style="font-size:medium;font-style:normal;font-variant:normal;font-weight:normal;font-stretch:normal;text-indent:0;text-align:start;text-decoration:none;line-height:normal;letter-spacing:normal;word-spacing:normal;text-transform:none;direction:ltr;block-progression:tb;writing-mode:lr-tb;text-anchor:start;baseline-shift:baseline;color:#000000;fill:#000000;fill-opacity:1;fill-rule:evenodd;stroke:none;stroke-width:49.71479797;marker:none;visibility:visible;display:inline;overflow:visible;enable-background:accumulate;font-family:Sans;-inkscape-font-specification:Sans"
               d="m -466.76694,548.08406 c 29.16171,-50.50956 11.74399,-115.4694 -38.76557,-144.63111 -50.50956,-29.16171 -118.29755,-15.64872 -210.62307,-7.24837 32.57102,78.95755 54.15696,161.13894 104.37541,190.40586 0.12577,0.0731 0.24205,0.15834 0.36817,0.23116 0.12693,0.0699 0.25505,0.1377 0.38428,0.20327 0.005,0.003 0.009,0.005 0.0139,0.008 0.24358,0.13902 0.49653,0.25341 0.74068,0.39044 50.37378,28.27504 114.57203,10.75607 143.50615,-39.3593 z m -22.16939,-12.7995 c -22.17689,38.41149 -70.86363,51.57706 -109.36961,29.56462 -0.0324,-0.0189 -0.0649,-0.0377 -0.0975,-0.0563 -0.0693,-0.0409 -0.13897,-0.0811 -0.20902,-0.12067 -38.52929,-22.2449 -51.61859,-71.13883 -29.3737,-109.66812 22.2449,-38.52928 71.12489,-51.62664 109.65418,-29.38174 38.52929,22.2449 51.64057,71.13293 29.39568,109.66222 z"
               id="path4313"
               inkscape:connector-curvature="0"
               sodipodi:nodetypes="csccccccccscccsscs" />
          </g>
          <path
             transform="matrix(-0.24866185,0.43069494,-0.43069494,-0.24866185,-308.50373,417.17241)"
             sodipodi:open="true"
             sodipodi:end="6.2789093"
             sodipodi:start="0"
             d="m 457.2698,356.88672 c 0,38.76244 -31.42317,70.1856 -70.1856,70.1856 -38.76244,0 -70.1856,-31.42316 -70.1856,-70.1856 0,-38.76244 31.42316,-70.1856 70.1856,-70.1856 38.64528,0 70.01971,31.24055 70.18496,69.88549"
             sodipodi:ry="70.1856"
             sodipodi:rx="70.1856"
             sodipodi:cy="356.88672"
             sodipodi:cx="387.0842"
             id="path4315"
             style="fill:#000000;fill-opacity:1;fill-rule:evenodd;stroke:#000000;stroke-width:100.53814697;stroke-linecap:round;stroke-miterlimit:4;stroke-opacity:1;stroke-dasharray:none"
             sodipodi:type="arc" />
        </g>
        <path
           transform="matrix(0.49727899,-0.00666732,0.00666732,0.49727899,-426.47765,96.914706)"
           sodipodi:open="true"
           sodipodi:end="6.2789093"
           sodipodi:start="0"
           d="m 457.2698,356.88672 c 0,38.76244 -31.42317,70.1856 -70.1856,70.1856 -38.76244,0 -70.1856,-31.42316 -70.1856,-70.1856 0,-38.76244 31.42316,-70.1856 70.1856,-70.1856 38.64528,0 70.01971,31.24055 70.18496,69.88549"
           sodipodi:ry="70.1856"
           sodipodi:rx="70.1856"
           sodipodi:cy="356.88672"
           sodipodi:cx="387.0842"
           id="path4317"
           style="fill:#000000;fill-opacity:1;fill-rule:evenodd;stroke:#000000;stroke-width:100.53814697;stroke-linecap:round;stroke-miterlimit:4;stroke-opacity:1;stroke-dasharray:none"
           sodipodi:type="arc" />
      </g>
      <rect
         transform="matrix(0.99999116,0.00420589,-0.01140679,0.99993494,0,0)"
         ry="53.966721"
         rx="49.887524"
         y="890.81775"
         x="11.093533"
         height="107.93344"
         width="99.775047"
         id="rect4319"
         style="fill:#5fbcd3;fill-opacity:1;fill-rule:evenodd;stroke:none" />
      <g
         transform="matrix(0.25430797,-0.18108422,0.17846955,0.2580337,60.895216,744.13952)"
         id="g4091">
        <path
           sodipodi:type="arc"
           style="fill:#000000;fill-opacity:1;fill-rule:evenodd;stroke:none"
           id="path4089"
           sodipodi:cx="-615.09521"
           sodipodi:cy="303.4198"
           sodipodi:rx="69.179413"
           sodipodi:ry="69.179413"
           d="m -545.9158,303.4198 c 0,38.20673 -30.97268,69.17941 -69.17941,69.17941 -38.20674,0 -69.17942,-30.97268 -69.17942,-69.17941 0,-38.20673 30.97268,-69.17941 69.17942,-69.17941 38.09126,0 69.0159,30.79268 69.17878,68.8836"
           sodipodi:start="0"
           sodipodi:end="6.2789093"
           sodipodi:open="true"
           transform="matrix(1.2826087,0,0,1.2826087,556.34115,-117.09129)" />
        <g
           id="g4052"
           transform="matrix(-0.51156537,-0.85924436,0.85924436,-0.51156537,-942.7505,45.245576)">
          <g
             id="g4049">
            <path
               style="font-size:medium;font-style:normal;font-variant:normal;font-weight:normal;font-stretch:normal;text-indent:0;text-align:start;text-decoration:none;line-height:normal;letter-spacing:normal;word-spacing:normal;text-transform:none;direction:ltr;block-progression:tb;writing-mode:lr-tb;text-anchor:start;baseline-shift:baseline;color:#000000;fill:#000000;fill-opacity:1;fill-rule:evenodd;stroke:none;stroke-width:49.71479797;marker:none;visibility:visible;display:inline;overflow:visible;enable-background:accumulate;font-family:Sans;-inkscape-font-specification:Sans"
               d="m -466.76694,548.08406 c 29.16171,-50.50956 11.74399,-115.4694 -38.76557,-144.63111 -50.50956,-29.16171 -118.29755,-15.64872 -210.62307,-7.24837 32.57102,78.95755 54.15696,161.13894 104.37541,190.40586 0.12577,0.0731 0.24205,0.15834 0.36817,0.23116 0.12693,0.0699 0.25505,0.1377 0.38428,0.20327 0.005,0.003 0.009,0.005 0.0139,0.008 0.24358,0.13902 0.49653,0.25341 0.74068,0.39044 50.37378,28.27504 114.57203,10.75607 143.50615,-39.3593 z m -22.16939,-12.7995 c -22.17689,38.41149 -70.86363,51.57706 -109.36961,29.56462 -0.0324,-0.0189 -0.0649,-0.0377 -0.0975,-0.0563 -0.0693,-0.0409 -0.13897,-0.0811 -0.20902,-0.12067 -38.52929,-22.2449 -51.61859,-71.13883 -29.3737,-109.66812 22.2449,-38.52928 71.12489,-51.62664 109.65418,-29.38174 38.52929,22.2449 51.64057,71.13293 29.39568,109.66222 z"
               id="path3906"
               inkscape:connector-curvature="0"
               sodipodi:nodetypes="csccccccccscccsscs" />
          </g>
          <path
             transform="matrix(-0.24866185,0.43069494,-0.43069494,-0.24866185,-308.50373,417.17241)"
             sodipodi:open="true"
             sodipodi:end="6.2789093"
             sodipodi:start="0"
             d="m 457.2698,356.88672 c 0,38.76244 -31.42317,70.1856 -70.1856,70.1856 -38.76244,0 -70.1856,-31.42316 -70.1856,-70.1856 0,-38.76244 31.42316,-70.1856 70.1856,-70.1856 38.64528,0 70.01971,31.24055 70.18496,69.88549"
             sodipodi:ry="70.1856"
             sodipodi:rx="70.1856"
             sodipodi:cy="356.88672"
             sodipodi:cx="387.0842"
             id="path3908"
             style="fill:#000000;fill-opacity:1;fill-rule:evenodd;stroke:#000000;stroke-width:100.53814697;stroke-linecap:round;stroke-miterlimit:4;stroke-opacity:1;stroke-dasharray:none"
             sodipodi:type="arc" />
        </g>
      </g>
      <g
         id="g4145"
         transform="matrix(-0.26974386,0.15640821,-0.15414984,-0.27369573,28.730199,1087.0765)">
        <path
           transform="matrix(1.2826087,0,0,1.2826087,506.7247,-30.26843)"
           sodipodi:open="true"
           sodipodi:end="6.2789093"
           sodipodi:start="0"
           d="m -545.9158,303.4198 c 0,38.20673 -30.97268,69.17941 -69.17941,69.17941 -38.20674,0 -69.17942,-30.97268 -69.17942,-69.17941 0,-38.20673 30.97268,-69.17941 69.17942,-69.17941 38.09126,0 69.0159,30.79268 69.17878,68.8836"
           sodipodi:ry="69.179413"
           sodipodi:rx="69.179413"
           sodipodi:cy="303.4198"
           sodipodi:cx="-615.09521"
           id="path4147"
           style="fill:#000000;fill-opacity:1;fill-rule:evenodd;stroke:none"
           sodipodi:type="arc" />
        <g
           transform="matrix(-0.51156537,-0.85924436,0.85924436,-0.51156537,-992.36691,132.06843)"
           id="g4149">
          <g
             id="g4151">
            <path
               sodipodi:nodetypes="csccccccccscccsscs"
               inkscape:connector-curvature="0"
               id="path4153"
               d="m -466.76694,548.08406 c 29.16171,-50.50956 11.74399,-115.4694 -38.76557,-144.63111 -50.50956,-29.16171 -118.29755,-15.64872 -210.62307,-7.24837 32.57102,78.95755 54.15696,161.13894 104.37541,190.40586 0.12577,0.0731 0.24205,0.15834 0.36817,0.23116 0.12693,0.0699 0.25505,0.1377 0.38428,0.20327 0.005,0.003 0.009,0.005 0.0139,0.008 0.24358,0.13902 0.49653,0.25341 0.74068,0.39044 50.37378,28.27504 114.57203,10.75607 143.50615,-39.3593 z m -22.16939,-12.7995 c -22.17689,38.41149 -70.86363,51.57706 -109.36961,29.56462 -0.0324,-0.0189 -0.0649,-0.0377 -0.0975,-0.0563 -0.0693,-0.0409 -0.13897,-0.0811 -0.20902,-0.12067 -38.52929,-22.2449 -51.61859,-71.13883 -29.3737,-109.66812 22.2449,-38.52928 71.12489,-51.62664 109.65418,-29.38174 38.52929,22.2449 51.64057,71.13293 29.39568,109.66222 z"
               style="font-size:medium;font-style:normal;font-variant:normal;font-weight:normal;font-stretch:normal;text-indent:0;text-align:start;text-decoration:none;line-height:normal;letter-spacing:normal;word-spacing:normal;text-transform:none;direction:ltr;block-progression:tb;writing-mode:lr-tb;text-anchor:start;baseline-shift:baseline;color:#000000;fill:#000000;fill-opacity:1;fill-rule:evenodd;stroke:none;stroke-width:49.71479797;marker:none;visibility:visible;display:inline;overflow:visible;enable-background:accumulate;font-family:Sans;-inkscape-font-specification:Sans" />
          </g>
          <path
             sodipodi:type="arc"
             style="fill:#000000;fill-opacity:1;fill-rule:evenodd;stroke:#000000;stroke-width:100.53814697;stroke-linecap:round;stroke-miterlimit:4;stroke-opacity:1;stroke-dasharray:none"
             id="path4155"
             sodipodi:cx="387.0842"
             sodipodi:cy="356.88672"
             sodipodi:rx="70.1856"
             sodipodi:ry="70.1856"
             d="m 457.2698,356.88672 c 0,38.76244 -31.42317,70.1856 -70.1856,70.1856 -38.76244,0 -70.1856,-31.42316 -70.1856,-70.1856 0,-38.76244 31.42316,-70.1856 70.1856,-70.1856 38.64528,0 70.01971,31.24055 70.18496,69.88549"
             sodipodi:start="0"
             sodipodi:end="6.2789093"
             sodipodi:open="true"
             transform="matrix(-0.24866185,0.43069494,-0.43069494,-0.24866185,-308.50373,417.17241)" />
        </g>
      </g>
      <g
         transform="matrix(-1.4600604,0.34000611,-0.34000611,-1.4600604,-391.93016,1342.364)"
         id="g4420"
         style="stroke:none" />
      <g
         transform="translate(67.76021,0)"
         id="g4434" />
      <flowRoot
         style="font-size:9px;font-style:normal;font-weight:normal;line-height:125%;letter-spacing:0px;word-spacing:0px;fill:#000000;fill-opacity:1;stroke:none;font-family:Sans"
         id="flowRoot3287"
         xml:space="preserve"><flowRegion
           id="flowRegion3289"><rect
             y="1214.0017"
             x="-263.72769"
             height="472.15765"
             width="365.81583"
             id="rect3291" /></flowRegion><flowPara
           id="flowPara3293"></flowPara></flowRoot>    </g>
  </g>
</svg>
